<svg width="128" height="128" viewBox="0 0 128 128" fill="none" xmlns="http://www.w3.org/2000/svg">
<rect x="12" y="12" width="105" height="105" fill="white"/>
<rect x="16" y="16" width="96" height="53" fill="#FF8B37"/>
<path d="M16 66.2778V55L35.8347 68.6944H56.0661L84.6281 63.4583L112 66.2778V113H16V66.2778Z" fill="black"/>
<rect x="61" y="69" width="4" height="44" fill="white"/>
<path d="M15 46C23.8178 54.116 31.0324 64.0347 42.6559 67.5072C50.0654 69.7209 69.3647 64.2251 86.7449 63.0435C96.6293 62.3715 106.385 64.2609 111.996 66.2899L113.413 69.4451C113.685 69.8467 113.884 70.282 114 70.7536L113.413 69.4451C109.939 64.3177 94.5505 64.6667 86.7449 64.6667C75.1145 64.6667 49.9148 74 42.6559 74C28.2267 74 21.8138 60.4734 15 54.116V46Z" fill="white"/>
<path d="M15 46C23.8178 54.116 31.0324 64.0347 42.6559 67.5072C50.0654 69.7209 69.3647 64.2251 86.7449 63.0435C96.6293 62.3715 106.385 64.2609 111.996 66.2899L114 70.7536C112.397 64.2609 95.1619 64.6667 86.7449 64.6667C75.1145 64.6667 49.9148 74 42.6559 74C28.2267 74 21.8138 60.4734 15 54.116V46Z" stroke="white"/>
</svg>
